<svg width="60" height="60" viewBox="0 0 60 60" fill="none" xmlns="http://www.w3.org/2000/svg">
  <defs>
    <radialGradient id="grad1" cx="50%" cy="50%" r="50%" fx="50%" fy="50%">
      <stop offset="0%" stop-color="#ffb7c5" stop-opacity="0.9" />
      <stop offset="100%" stop-color="#ff9eb5" stop-opacity="1" />
    </radialGradient>
    <filter id="blur" x="-50%" y="-50%" width="200%" height="200%">
      <feGaussianBlur in="SourceGraphic" stdDeviation="0.5" />
    </filter>
  </defs>
  <path
    d="M30 55 C30 55 45 40 45 25 C45 10 30 0 30 0 C30 0 15 10 15 25 C15 40 30 55 30 55 Z"
    fill="url(#grad1)"
  />
  <path
    d="M30 55 C30 55 45 40 45 25 C45 10 30 0 30 0 C30 0 15 10 15 25 C15 40 30 55 30 55 Z"
    stroke="#ffffff"
    stroke-width="0.5"
    stroke-opacity="0.5"
  />
  <path
    d="M30 55 Q 30 40 30 25"
    stroke="#e86a92"
    stroke-width="0.5"
    stroke-opacity="0.6"
    stroke-linecap="round"
  />
</svg>
